<svg width="300" height="157" viewBox="0 0 300 157" fill="none" xmlns="http://www.w3.org/2000/svg">
<path d="M13.0484 149.481V124.77H16.9316V149.481H13.0484ZM26.6176 149.481V124.77H30.5009L42.7508 143.162V124.77H46.634V149.481H42.7508L30.5009 131.124V149.481H26.6176ZM56.3212 149.481V124.77H60.2044L72.4543 143.162V124.77H76.3375V149.481H72.4543L60.2044 131.124V149.481H56.3212ZM97.2508 149.905C94.8031 149.905 92.6615 149.364 90.8258 148.281C88.99 147.198 87.5544 145.704 86.5189 143.798C85.4834 141.891 84.9656 139.667 84.9656 137.125C84.9656 134.607 85.4716 132.395 86.4836 130.489C87.5191 128.559 88.9547 127.053 90.7905 125.97C92.6497 124.887 94.8031 124.346 97.2508 124.346C99.7219 124.346 101.875 124.887 103.711 125.97C105.547 127.053 106.971 128.559 107.983 130.489C109.018 132.395 109.536 134.607 109.536 137.125C109.536 139.667 109.018 141.891 107.983 143.798C106.971 145.704 105.547 147.198 103.711 148.281C101.875 149.364 99.7219 149.905 97.2508 149.905ZM97.2508 146.445C98.9453 146.445 100.404 146.08 101.628 145.351C102.876 144.598 103.841 143.527 104.523 142.138C105.229 140.726 105.582 139.055 105.582 137.125C105.582 135.196 105.229 133.536 104.523 132.148C103.841 130.759 102.876 129.7 101.628 128.971C100.404 128.217 98.9453 127.841 97.2508 127.841C95.6033 127.841 94.1442 128.217 92.8733 128.971C91.6259 129.7 90.6493 130.759 89.9432 132.148C89.2607 133.536 88.9194 135.196 88.9194 137.125C88.9194 139.055 89.2607 140.726 89.9432 142.138C90.6493 143.527 91.6259 144.598 92.8733 145.351C94.1442 146.08 95.6033 146.445 97.2508 146.445ZM124.19 149.481L115.047 124.77H119.212L126.52 145.457L133.898 124.77H137.993L128.85 149.481H124.19ZM140.95 149.481L149.987 124.77H154.294L163.331 149.481H159.236L151.293 126.994H152.952L145.009 149.481H140.95ZM145.115 143.515L146.21 140.409H158.071L159.166 143.515H145.115ZM174.73 149.481V127.912H167.422V124.77H185.886V127.912H178.613V149.481H174.73ZM194.496 149.481V124.77H198.379V149.481H194.496ZM219.292 149.905C216.844 149.905 214.702 149.364 212.867 148.281C211.031 147.198 209.595 145.704 208.56 143.798C207.524 141.891 207.006 139.667 207.006 137.125C207.006 134.607 207.512 132.395 208.524 130.489C209.56 128.559 210.996 127.053 212.831 125.97C214.691 124.887 216.844 124.346 219.292 124.346C221.763 124.346 223.916 124.887 225.752 125.97C227.588 127.053 229.012 128.559 230.024 130.489C231.059 132.395 231.577 134.607 231.577 137.125C231.577 139.667 231.059 141.891 230.024 143.798C229.012 145.704 227.588 147.198 225.752 148.281C223.916 149.364 221.763 149.905 219.292 149.905ZM219.292 146.445C220.986 146.445 222.445 146.08 223.669 145.351C224.916 144.598 225.881 143.527 226.564 142.138C227.27 140.726 227.623 139.055 227.623 137.125C227.623 135.196 227.27 133.536 226.564 132.148C225.881 130.759 224.916 129.7 223.669 128.971C222.445 128.217 220.986 127.841 219.292 127.841C217.644 127.841 216.185 128.217 214.914 128.971C213.667 129.7 212.69 130.759 211.984 132.148C211.302 133.536 210.96 135.196 210.96 137.125C210.96 139.055 211.302 140.726 211.984 142.138C212.69 143.527 213.667 144.598 214.914 145.351C216.185 146.08 217.644 146.445 219.292 146.445ZM240.182 149.481V124.77H244.066L256.315 143.162V124.77H260.199V149.481H256.315L244.066 131.124V149.481H240.182ZM278.605 149.905C277.405 149.905 276.24 149.752 275.111 149.446C273.981 149.116 272.957 148.61 272.039 147.928C271.121 147.245 270.368 146.375 269.78 145.316C269.192 144.256 268.838 142.997 268.721 141.538H272.392C272.557 142.762 272.945 143.75 273.557 144.504C274.169 145.233 274.922 145.763 275.817 146.092C276.711 146.398 277.652 146.551 278.641 146.551C279.629 146.551 280.524 146.41 281.324 146.127C282.124 145.822 282.759 145.374 283.23 144.786C283.701 144.174 283.936 143.421 283.936 142.527C283.936 141.703 283.701 140.973 283.23 140.338C282.783 139.702 281.877 139.267 280.512 139.032L275.922 138.184C274.04 137.831 272.533 137.055 271.404 135.855C270.274 134.654 269.709 133.23 269.709 131.583C269.709 130.053 270.098 128.759 270.874 127.7C271.674 126.617 272.722 125.793 274.016 125.229C275.334 124.64 276.77 124.346 278.323 124.346C279.947 124.346 281.394 124.628 282.665 125.193C283.96 125.758 285.007 126.605 285.807 127.735C286.631 128.841 287.125 130.265 287.29 132.007H283.548C283.407 130.948 283.089 130.1 282.595 129.465C282.1 128.829 281.488 128.37 280.759 128.088C280.029 127.806 279.229 127.664 278.358 127.664C277.558 127.664 276.77 127.794 275.993 128.053C275.216 128.312 274.581 128.723 274.087 129.288C273.616 129.83 273.381 130.547 273.381 131.442C273.381 132.265 273.687 132.983 274.299 133.595C274.91 134.184 275.805 134.584 276.982 134.795L281.253 135.607C283.301 135.984 284.877 136.725 285.984 137.831C287.113 138.938 287.678 140.467 287.678 142.421C287.678 143.668 287.419 144.762 286.901 145.704C286.384 146.622 285.689 147.398 284.819 148.034C283.948 148.646 282.971 149.116 281.889 149.446C280.829 149.752 279.735 149.905 278.605 149.905Z" fill="#FFFFFF"/>
<path d="M12.8585 109V23.6H48.6045C55.5178 23.6 61.2112 24.7793 65.6845 27.138C70.1578 29.4153 73.4925 32.5467 75.6885 36.532C77.8845 40.436 78.9825 44.9093 78.9825 49.952C78.9825 53.9373 78.0878 57.5973 76.2985 60.932C74.5905 64.2667 72.1912 67.1133 69.1005 69.472C72.3538 71.5867 74.8345 74.352 76.5425 77.768C78.2505 81.1027 79.1858 84.966 79.3485 89.358L80.3245 109H64.8305L63.4885 89.602C63.3258 86.5113 62.7565 83.99 61.7805 82.038C60.8045 80.0047 59.2592 78.5407 57.1445 77.646C55.1112 76.67 52.2645 76.182 48.6045 76.182H28.7185V109H12.8585ZM28.7185 63.372H47.6285C52.9152 63.372 56.7785 62.152 59.2185 59.712C61.6585 57.272 62.8785 54.0187 62.8785 49.952C62.8785 45.7227 61.6585 42.4287 59.2185 40.07C56.8598 37.7113 52.9965 36.532 47.6285 36.532H28.7185V63.372ZM81.9896 109L113.1 23.6H131.034L162.266 109H145.552L118.834 32.384H125.3L98.5816 109H81.9896ZM96.3856 89.358L100.656 76.914H143.6L147.87 89.358H96.3856ZM165.783 109V23.6H221.171V36.41H181.643V59.956H213.607V72.4H181.643V109H165.783ZM247.698 109V36.41H222.688V23.6H288.446V36.41H263.558V109H247.698Z" fill="#FFFFFF"/>
</svg>
